:SAMPLES-PER-SECOND 30
:FULLY-SPECIFIED
:DEGREES
49
root  34.80910955 36.54913114 -14.39909747 9.293909073 -5.282536507 3.406119347
lowerback  -7.963450432 -1.066869974 -0.694660902
upperback  -3.909579992 -0.9310250282 -3.195800066
thorax  0.3813489974 -0.3123399913 -2.982180119
lowerneck  -6.535329819 -13.70559978 -11.11030006
upperneck  11.24020004 -18.5984993 10.70320034
head  6.530779839 -8.796759605 3.426949978
lclavicle  0 -4.497500157e-015 -2.743230041e-014
lhumerus  -48.8003006 29.79910088 63.73519897
lradius  0.006001632661 -6.507048965e-006 30.37809944
lwrist  4.824992743e-007 -3.790274832e-007 -28.11809921
lhand  -4.410243308e-031 -36.8064003 -10.72809982
lfingers  90 7.125020027 -90
lthumb  94.78340253 -25.56628479 100.9737506
rclavicle  0 -4.497500157e-015 -2.743230041e-014
rhumerus  -57.52610016 -26.29229927 -57.56190109
rradius  -5.16745672e-007 2.214343908e-008 86.06159973
rwrist  -2.867388866e-005 0.1128110886 -173.4880066
rhand  -1.7661092e-031 -1.425629973 -8.007570267
rfingers  -90 -7.125020027 -90
rthumb  -86.48991654 -7.749001757 -65.53800254
rfemur  -11.53847027 15.38974285 12.65673542
rtibia  -0.3457131684 -1.274124622 18.94599342
rfoot  1.233950019 -22.26205254 -34.77158356
rtoes  4.067129194 19.59869679 -101.9683541
lfemur  -6.063957691 -15.85034466 -21.36969376
ltibia  4.546273708 -0.4407975972 11.45913029
lfoot  0.6937839985 -22.96303749 36.6387825
ltoes  -8.658636908 -18.09811937 -116.1147579
50
root  34.80081934 36.54905905 -14.39380646 9.378444672 -5.234645844 3.406759977
lowerback  -7.905840397 -1.093030095 -0.6872170568
upperback  -3.877449989 -0.9709609747 -3.200939894
thorax  0.3806369901 -0.3340499997 -2.994159937
lowerneck  -6.479869843 -13.74450016 -11.17920017
upperneck  11.15040016 -18.65060043 10.7489996
head  6.509860039 -8.826729774 3.448729992
lclavicle  0 -4.497500157e-015 -2.743230041e-014
lhumerus  -48.79299927 29.78030014 63.73329926
lradius  0.006001632661 -6.507048965e-006 30.32999802
lwrist  4.824992743e-007 -3.790274832e-007 -28.20339966
lhand  -0 -36.78749847 -10.70429993
lfingers  90 7.125020027 -90
lthumb  94.76952115 -25.54365234 100.9513555
rclavicle  0 -4.497500157e-015 -2.743230041e-014
rhumerus  -57.40250015 -26.19020081 -57.292099
rradius  -5.16745672e-007 2.214343908e-008 88.13269806
rwrist  -2.867388866e-005 0.1128110886 -173.9980011
rhand  -1.766222577e-031 -1.566460013 -7.760399818
rfingers  -90 -7.125020027 -90
rthumb  -86.41292789 -7.96608764 -65.66095393
rfemur  -11.66346073 15.32912445 12.66219616
rtibia  -0.3542994261 -1.257207632 19.03997421
rfoot  1.193186998 -22.26433372 -34.75754929
rtoes  4.059599355 19.60019903 -101.9459066
lfemur  -6.035912514 -15.86208248 -21.38187599
ltibia  4.63816452 -0.4007944465 11.27743149
lfoot  0.677978754 -22.92997742 36.62340546
ltoes  -8.637597211 -18.10790813 -116.0470466
51
root  34.80550811 36.54725383 -14.39062404 9.307463646 -5.369818687 3.408298969
lowerback  -7.990579605 -1.064539909 -0.735877037
upperback  -3.887310028 -0.9245160222 -3.202970028
thorax  0.420284003 -0.3087820113 -2.966439962
lowerneck  -6.452899933 -13.76720047 -11.20030022
upperneck  11.08269978 -18.6826992 10.78610039
head  6.493159771 -8.843569756 3.461800098
lclavicle  0 -4.497500157e-015 -2.743230041e-014
lhumerus  -48.79639816 29.80540085 63.68719864
lradius  0.006001632661 -6.507048965e-006 30.31329918
lwrist  4.824992743e-007 -3.790274832e-007 -28.23159981
lhand  -4.412514729e-031 -36.84579849 -10.66149998
lfingers  90 7.125020027 -90
lthumb  94.78783405 -25.49959787 101.0098576
rclavicle  0 -4.497500157e-015 -2.743230041e-014
rhumerus  -57.23080063 -26.07729912 -57.02220154
rradius  -5.16745672e-007 2.214343908e-008 90.29730225
rwrist  -2.867388866e-005 0.1128110886 -174.3339996
rhand  -1.765730159e-031 -0.7895280123 -8.124389648
rfingers  -90 -7.125020027 -90
rthumb  -86.42189644 -7.680348469 -64.92584438
rfemur  -11.58983231 15.3474741 12.64356422
rtibia  -0.3309722543 -1.292620778 19.02429962
rfoot  1.214537621 -22.37484169 -34.64631271
rtoes  4.081405523 19.59584058 -102.0109183
lfemur  -5.908959389 -15.84819508 -21.4547596
ltibia  4.666033268 -0.4714154899 11.22539616
lfoot  0.660838306 -22.77963066 36.67259598
ltoes  -8.633167627 -18.1099652 -116.0327955
52
root  34.80368787 36.54738299 -14.38522489 9.30068779 -5.424932003 3.409299612
lowerback  -8.001489639 -1.063060045 -0.7386620641
upperback  -3.888240099 -0.9205970168 -3.22059989
thorax  0.4252440035 -0.3063899875 -2.983040094
lowerneck  -6.418250084 -13.78579998 -11.1967001
upperneck  11.03030014 -18.71310043 10.82530022
head  6.477719784 -8.857819557 3.472729921
lclavicle  0 -4.497500157e-015 -2.743230041e-014
lhumerus  -48.76330185 29.7595005 63.68830109
lradius  0.006001632661 -6.507048965e-006 30.32640076
lwrist  4.824992743e-007 -3.790274832e-007 -28.05730057
lhand  -4.408815821e-031 -36.78160095 -10.64990044
lfingers  90 7.125020027 -90
lthumb  94.75529366 -25.49032005 100.9401268
rclavicle  0 -4.497500157e-015 -2.743230041e-014
rhumerus  -57.0245018 -25.99970055 -56.71839905
rradius  -5.16745672e-007 2.214343908e-008 92.33439636
rwrist  -2.867388866e-005 0.1128110886 -174.9389954
rhand  -1.765770877e-031 -0.8801969886 -7.945320129
rfingers  -90 -7.125020027 -90
rthumb  -86.36234611 -7.837220148 -65.0037395
rfemur  -11.57119751 15.34262848 12.63952732
rtibia  -0.3192476034 -1.313566923 19.01279831
rfoot  1.218947291 -22.43522263 -34.60673141
rtoes  4.104057644 19.59128713 -102.0784669
lfemur  -5.844138145 -15.78562069 -21.48246384
ltibia  4.716594219 -0.4591862857 11.14530563
lfoot  0.6788491607 -22.77718353 36.70040512
ltoes  -8.672623921 -18.09159535 -116.1597915
53
root  34.80494942 36.5470706 -14.38195837 9.288515091 -5.484288216 3.408325434
lowerback  -8.036939621 -1.046910048 -0.7686415911
upperback  -3.890215635 -0.8916069865 -3.261950016
thorax  0.4417090118 -0.2901270092 -3.007270098
lowerneck  -6.374120235 -13.81750011 -11.09990025
upperneck  10.99660015 -18.76799774 10.83530045
head  6.457439899 -8.88090992 3.459599972
lclavicle  0 -4.497500157e-015 -2.743230041e-014
lhumerus  -48.71310043 29.66530037 63.63779831
lradius  0.006001632661 -6.507048965e-006 30.32229996
lwrist  4.824992743e-007 -3.790274832e-007 -28.03409958
lhand  -4.409943876e-031 -36.80120087 -10.67949963
lfingers  90 7.125020027 -90
lthumb  94.77070443 -25.51869475 100.9637711
rclavicle  0 -4.497500157e-015 -2.743230041e-014
rhumerus  -56.82759857 -25.9484005 -56.41690063
rradius  -5.16745672e-007 2.214343908e-008 94.3553009
rwrist  -2.867388866e-005 0.1128110886 -175.5209961
rhand  -1.765817646e-031 -0.973976016 -8.001350403
rfingers  -90 -7.125020027 -90
rthumb  -86.40371753 -7.780956834 -65.09815066
rfemur  -11.52311516 15.3254509 12.61264133
rtibia  -0.293297261 -1.359773278 18.94452286
rfoot  1.245368719 -22.51868439 -34.55814362
rtoes  4.123615587 19.58733438 -102.1368007
lfemur  -5.868346691 -15.82207775 -21.49726105
ltibia  4.678533554 -0.5154392719 11.2367115
lfoot  0.6791427135 -22.71436882 36.7158699
ltoes  -8.663450655 -18.09587556 -116.1302548
54
root  34.80087941 36.5479627 -14.37551543 9.308673859 -5.530112267 3.403342247
lowerback  -8.005021095 -1.044810176 -0.7654549479
upperback  -3.89276433 -0.8888009787 -3.288789988
thorax  0.4224669933 -0.2887240052 -3.036190033
lowerneck  -6.385499954 -13.84109974 -11.04030037
upperneck  11.00090027 -18.80169868 10.8039999
head  6.455520153 -8.896050453 3.436870098
lclavicle  0 -4.497500157e-015 -2.743230041e-014
lhumerus  -48.6916008 29.62800026 63.6114006
lradius  0.006001632661 -6.507048965e-006 30.2859993
lwrist  4.824992743e-007 -3.790274832e-007 -28.08519936
lhand  -0 -36.79790115 -10.65089989
lfingers  90 7.125020027 -90
lthumb  94.76314173 -25.49078352 100.9576455
rclavicle  0 -4.497500157e-015 -2.743230041e-014
rhumerus  -56.56620026 -25.89629936 -56.10319901
rradius  -5.16745672e-007 2.214343908e-008 96.39309692
rwrist  -2.867388866e-005 0.1128110886 -175.4819946
rhand  -1.76590321e-031 -1.12548995 -8.000379562
rfingers  -90 -7.125020027 -90
rthumb  -86.43148973 -7.772974448 -65.2455909
rfemur  -11.4938755 15.2570858 12.60050678
rtibia  -0.263539046 -1.41478157 18.86122513
rfoot  1.292175174 -22.61038208 -34.46380234
rtoes  4.099619752 19.5921813 -102.0652319
lfemur  -5.910060883 -15.81167603 -21.47813988
ltibia  4.665389061 -0.5191400051 11.29384422
lfoot  0.7013027072 -22.73538971 36.72219086
ltoes  -8.63785558 -18.1077881 -116.0478779
55
root  34.79771952 36.54783654 -14.37004119 9.308901787 -5.585615635 3.417739391
lowerback  -7.987490177 -1.055840015 -0.7428958416
upperback  -3.896189928 -0.9068689942 -3.281500101
thorax  0.408870995 -0.2985340059 -3.042520046
lowerneck  -6.400410175 -13.85550022 -11.0632
upperneck  10.98550034 -18.81780052 10.80189991
head  6.456860065 -8.905249596 3.43637991
lclavicle  0 -4.497500157e-015 -2.743230041e-014
lhumerus  -48.73860168 29.74970055 63.5401001
lradius  0.006001632661 -6.507048965e-006 30.28389931
lwrist  4.824992743e-007 -3.790274832e-007 -28.23060036
lhand  -4.408510833e-031 -36.77629852 -10.63440037
lfingers  90 7.125020027 -90
lthumb  94.74955311 -25.4753316 100.9330336
rclavicle  0 -4.497500157e-015 -2.743230041e-014
rhumerus  -56.13740158 -25.7894001 -55.80289841
rradius  -5.16745672e-007 2.214343908e-008 98.32659912
rwrist  -2.867388866e-005 0.1128110886 -175.6670074
rhand  -1.76566867e-031 -0.628271997 -7.93460989
rfingers  -90 -7.125020027 -90
rthumb  -86.31026608 -7.861625935 -64.75787775
rfemur  -11.4791708 15.22911358 12.57915497
rtibia  -0.2552272379 -1.446958184 18.83783913
rfoot  1.312704921 -22.66238213 -34.39738464
rtoes  4.076647025 19.59679376 -101.9967304
lfemur  -5.88815546 -15.77963734 -21.51011467
ltibia  4.692252636 -0.5248913169 11.26547813
lfoot  0.7104675174 -22.7230835 36.7252388
ltoes  -8.644385668 -18.10475305 -116.0688898
